999
********************************
999
*   DXF File - Entities Only   *
999
*        3D Data Format        *
999
*     Output from ENVISAGE     *
999
*       2-Nov-95 08:19:54      *
999
********************************
  0
SECTION
  2
ENTITIES
  0
3DFACE
  8
UNCON
  6
CONTINUOUS
 10
6.082
 20
7571.457
 30
2500.000
 11
14.190
 21
7563.349
 31
2500.000
 12
14.190
 22
30.407
 32
2500.000
 13
6.082
 23
7571.457
 33
2500.000
  0
3DFACE
  8
UNCON
  6
CONTINUOUS
 10
6.082
 20
7571.457
 30
2500.000
 11
2836.003
 21
7020.069
 31
3000.000
 12
14.190
 22
7563.349
 32
2500.000
 13
6.082
 23
7571.457
 33
2500.000
  0
3DFACE
  8
UNCON
  6
CONTINUOUS
 10
6.082
 20
7571.457
 30
2500.000
 11
4222.583
 21
7125.481
 31
3000.000
 12
2836.003
 22
7020.069
 32
3000.000
 13
6.082
 23
7571.457
 33
2500.000
  0
3DFACE
  8
UNCON
  6
CONTINUOUS
 10
6.082
 20
7571.457
 30
2500.000
 11
5041.557
 21
7141.699
 31
3000.000
 12
4222.583
 22
7125.481
 32
3000.000
 13
6.082
 23
7571.457
 33
2500.000
  0
3DFACE
  8
UNCON
  6
CONTINUOUS
 10
6.082
 20
7571.457
 30
2500.000
 11
6476.789
 21
7198.459
 31
3000.000
 12
5041.557
 22
7141.699
 32
3000.000
 13
6.082
 23
7571.457
 33
2500.000
  0
3DFACE
  8
UNCON
  6
CONTINUOUS
 10
6.082
 20
7571.457
 30
2500.000
 11
9931.076
 21
7579.566
 31
2500.000
 12
6476.789
 22
7198.459
 32
3000.000
 13
6.082
 23
7571.457
 33
2500.000
  0
3DFACE
  8
UNCON
  6
CONTINUOUS
 10
14.190
 20
30.407
 30
2500.000
 11
5422.664
 21
265.558
 31
3000.000
 12
9939.185
 22
14.190
 32
2500.000
 13
14.190
 23
30.407
 33
2500.000
  0
3DFACE
  8
UNCON
  6
CONTINUOUS
 10
14.190
 20
30.407
 30
2500.000
 11
4117.170
 21
289.884
 31
3000.000
 12
5422.664
 22
265.558
 32
3000.000
 13
14.190
 23
30.407
 33
2500.000
  0
3DFACE
  8
UNCON
  6
CONTINUOUS
 10
14.190
 20
30.407
 30
2500.000
 11
2098.115
 21
249.341
 31
3000.000
 12
4117.170
 22
289.884
 32
3000.000
 13
14.190
 23
30.407
 33
2500.000
  0
3DFACE
  8
UNCON
  6
CONTINUOUS
 10
14.190
 20
30.407
 30
2500.000
 11
1262.923
 21
330.428
 31
3000.000
 12
2098.115
 22
249.341
 32
3000.000
 13
14.190
 23
30.407
 33
2500.000
  0
3DFACE
  8
UNCON
  6
CONTINUOUS
 10
14.190
 20
30.407
 30
2500.000
 11
679.100
 21
468.275
 31
3000.000
 12
1262.923
 22
330.428
 32
3000.000
 13
14.190
 23
30.407
 33
2500.000
  0
3DFACE
  8
UNCON
  6
CONTINUOUS
 10
14.190
 20
30.407
 30
2500.000
 11
541.253
 21
922.360
 31
3000.000
 12
679.100
 22
468.275
 32
3000.000
 13
14.190
 23
30.407
 33
2500.000
  0
3DFACE
  8
UNCON
  6
CONTINUOUS
 10
14.190
 20
30.407
 30
2500.000
 11
427.732
 21
1992.702
 31
3000.000
 12
541.253
 22
922.360
 32
3000.000
 13
14.190
 23
30.407
 33
2500.000
  0
3DFACE
  8
UNCON
  6
CONTINUOUS
 10
14.190
 20
30.407
 30
2500.000
 11
370.971
 21
3030.610
 31
3000.000
 12
427.732
 22
1992.702
 32
3000.000
 13
14.190
 23
30.407
 33
2500.000
  0
3DFACE
  8
UNCON
  6
CONTINUOUS
 10
14.190
 20
30.407
 30
2500.000
 11
379.080
 21
3776.607
 31
3000.000
 12
370.971
 22
3030.610
 32
3000.000
 13
14.190
 23
30.407
 33
2500.000
  0
3DFACE
  8
UNCON
  6
CONTINUOUS
 10
14.190
 20
30.407
 30
2500.000
 11
14.190
 21
7563.349
 31
2500.000
 12
379.080
 22
3776.607
 32
3000.000
 13
14.190
 23
30.407
 33
2500.000
  0
3DFACE
  8
UNCON
  6
CONTINUOUS
 10
14.190
 20
7563.349
 30
2500.000
 11
452.058
 21
4636.124
 31
3000.000
 12
379.080
 22
3776.607
 32
3000.000
 13
14.190
 23
7563.349
 33
2500.000
  0
3DFACE
  8
UNCON
  6
CONTINUOUS
 10
14.190
 20
7563.349
 30
2500.000
 11
865.599
 21
6184.877
 31
3000.000
 12
452.058
 22
4636.124
 32
3000.000
 13
14.190
 23
7563.349
 33
2500.000
  0
3DFACE
  8
UNCON
  6
CONTINUOUS
 10
14.190
 20
7563.349
 30
2500.000
 11
1352.118
 21
6817.352
 31
3000.000
 12
865.599
 22
6184.877
 32
3000.000
 13
14.190
 23
7563.349
 33
2500.000
  0
3DFACE
  8
UNCON
  6
CONTINUOUS
 10
14.190
 20
7563.349
 30
2500.000
 11
2836.003
 21
7020.069
 31
3000.000
 12
1352.118
 22
6817.352
 32
3000.000
 13
14.190
 23
7563.349
 33
2500.000
  0
3DFACE
  8
UNCON
  6
CONTINUOUS
 10
370.971
 20
3030.610
 30
3000.000
 11
1376.444
 21
3071.153
 31
3500.000
 12
427.732
 22
1992.702
 32
3000.000
 13
370.971
 23
3030.610
 33
3000.000
  0
3DFACE
  8
UNCON
  6
CONTINUOUS
 10
370.971
 20
3030.610
 30
3000.000
 11
379.080
 21
3776.607
 31
3000.000
 12
1376.444
 22
3071.153
 32
3500.000
 13
370.971
 23
3030.610
 33
3000.000
  0
3DFACE
  8
UNCON
  6
CONTINUOUS
 10
379.080
 20
3776.607
 30
3000.000
 11
1360.227
 21
4733.428
 31
3500.000
 12
1376.444
 22
3071.153
 32
3500.000
 13
379.080
 23
3776.607
 33
3000.000
  0
3DFACE
  8
UNCON
  6
CONTINUOUS
 10
379.080
 20
3776.607
 30
3000.000
 11
452.058
 21
4636.124
 31
3000.000
 12
1360.227
 22
4733.428
 32
3500.000
 13
379.080
 23
3776.607
 33
3000.000
  0
3DFACE
  8
UNCON
  6
CONTINUOUS
 10
427.732
 20
1992.702
 30
3000.000
 11
1489.966
 21
1903.507
 31
3500.000
 12
541.253
 22
922.360
 32
3000.000
 13
427.732
 23
1992.702
 33
3000.000
  0
3DFACE
  8
UNCON
  6
CONTINUOUS
 10
427.732
 20
1992.702
 30
3000.000
 11
1376.444
 21
3071.153
 31
3500.000
 12
1489.966
 22
1903.507
 32
3500.000
 13
427.732
 23
1992.702
 33
3000.000
  0
3DFACE
  8
UNCON
  6
CONTINUOUS
 10
452.058
 20
4636.124
 30
3000.000
 11
865.599
 21
6184.877
 31
3000.000
 12
1360.227
 22
4733.428
 32
3500.000
 13
452.058
 23
4636.124
 33
3000.000
  0
3DFACE
  8
UNCON
  6
CONTINUOUS
 10
541.253
 20
922.360
 30
3000.000
 11
1262.923
 21
330.428
 31
3000.000
 12
679.100
 22
468.275
 32
3000.000
 13
541.253
 23
922.360
 33
3000.000
  0
3DFACE
  8
UNCON
  6
CONTINUOUS
 10
541.253
 20
922.360
 30
3000.000
 11
1960.268
 21
1068.315
 31
3500.000
 12
1262.923
 22
330.428
 32
3000.000
 13
541.253
 23
922.360
 33
3000.000
  0
3DFACE
  8
UNCON
  6
CONTINUOUS
 10
541.253
 20
922.360
 30
3000.000
 11
1489.966
 21
1903.507
 31
3500.000
 12
1960.268
 22
1068.315
 32
3500.000
 13
541.253
 23
922.360
 33
3000.000
  0
3DFACE
  8
UNCON
  6
CONTINUOUS
 10
865.599
 20
6184.877
 30
3000.000
 11
1806.203
 21
5836.205
 31
3500.000
 12
1360.227
 22
4733.428
 32
3500.000
 13
865.599
 23
6184.877
 33
3000.000
  0
3DFACE
  8
UNCON
  6
CONTINUOUS
 10
865.599
 20
6184.877
 30
3000.000
 11
1352.118
 21
6817.352
 31
3000.000
 12
1806.203
 22
5836.205
 32
3500.000
 13
865.599
 23
6184.877
 33
3000.000
  0
3DFACE
  8
UNCON
  6
CONTINUOUS
 10
1262.923
 20
330.428
 30
3000.000
 11
1960.268
 21
1068.315
 31
3500.000
 12
2098.115
 22
249.341
 32
3000.000
 13
1262.923
 23
330.428
 33
3000.000
  0
3DFACE
  8
UNCON
  6
CONTINUOUS
 10
1352.118
 20
6817.352
 30
3000.000
 11
2511.656
 21
6225.421
 31
3500.000
 12
1806.203
 22
5836.205
 32
3500.000
 13
1352.118
 23
6817.352
 33
3000.000
  0
3DFACE
  8
UNCON
  6
CONTINUOUS
 10
1352.118
 20
6817.352
 30
3000.000
 11
2836.003
 21
7020.069
 31
3000.000
 12
2511.656
 22
6225.421
 32
3500.000
 13
1352.118
 23
6817.352
 33
3000.000
  0
3DFACE
  8
UNCON
  6
CONTINUOUS
 10
1360.227
 20
4733.428
 30
3500.000
 11
1789.986
 21
3752.281
 31
4000.000
 12
1376.444
 22
3071.153
 32
3500.000
 13
1360.227
 23
4733.428
 33
3500.000
  0
3DFACE
  8
UNCON
  6
CONTINUOUS
 10
1360.227
 20
4733.428
 30
3500.000
 11
2025.137
 21
4798.297
 31
4000.000
 12
1789.986
 22
3752.281
 32
4000.000
 13
1360.227
 23
4733.428
 33
3500.000
  0
3DFACE
  8
UNCON
  6
CONTINUOUS
 10
1360.227
 20
4733.428
 30
3500.000
 11
1806.203
 21
5836.205
 31
3500.000
 12
2025.137
 22
4798.297
 32
4000.000
 13
1360.227
 23
4733.428
 33
3500.000
  0
3DFACE
  8
UNCON
  6
CONTINUOUS
 10
1376.444
 20
3071.153
 30
3500.000
 11
1919.724
 21
2641.395
 31
4000.000
 12
1489.966
 22
1903.507
 32
3500.000
 13
1376.444
 23
3071.153
 33
3500.000
  0
3DFACE
  8
UNCON
  6
CONTINUOUS
 10
1376.444
 20
3071.153
 30
3500.000
 11
1789.986
 21
3752.281
 31
4000.000
 12
1919.724
 22
2641.395
 32
4000.000
 13
1376.444
 23
3071.153
 33
3500.000
  0
3DFACE
  8
UNCON
  6
CONTINUOUS
 10
1489.966
 20
1903.507
 30
3500.000
 11
2438.678
 21
1433.205
 31
4000.000
 12
1960.268
 22
1068.315
 32
3500.000
 13
1489.966
 23
1903.507
 33
3500.000
  0
3DFACE
  8
UNCON
  6
CONTINUOUS
 10
1489.966
 20
1903.507
 30
3500.000
 11
1919.724
 21
2641.395
 31
4000.000
 12
2438.678
 22
1433.205
 32
4000.000
 13
1489.966
 23
1903.507
 33
3500.000
  0
3DFACE
  8
UNCON
  6
CONTINUOUS
 10
1789.986
 20
3752.281
 30
4000.000
 11
2519.765
 21
3363.065
 31
4000.000
 12
1919.724
 22
2641.395
 32
4000.000
 13
1789.986
 23
3752.281
 33
4000.000
  0
3DFACE
  8
UNCON
  6
CONTINUOUS
 10
1789.986
 20
3752.281
 30
4000.000
 11
2438.678
 21
3995.540
 31
4500.000
 12
2519.765
 22
3363.065
 32
4000.000
 13
1789.986
 23
3752.281
 33
4000.000
  0
3DFACE
  8
UNCON
  6
CONTINUOUS
 10
1789.986
 20
3752.281
 30
4000.000
 11
2025.137
 21
4798.297
 31
4000.000
 12
2438.678
 22
3995.540
 32
4500.000
 13
1789.986
 23
3752.281
 33
4000.000
  0
3DFACE
  8
UNCON
  6
CONTINUOUS
 10
1806.203
 20
5836.205
 30
3500.000
 11
2933.306
 21
5649.706
 31
4000.000
 12
2025.137
 22
4798.297
 32
4000.000
 13
1806.203
 23
5836.205
 33
3500.000
  0
3DFACE
  8
UNCON
  6
CONTINUOUS
 10
1806.203
 20
5836.205
 30
3500.000
 11
2511.656
 21
6225.421
 31
3500.000
 12
2933.306
 22
5649.706
 32
4000.000
 13
1806.203
 23
5836.205
 33
3500.000
  0
3DFACE
  8
UNCON
  6
CONTINUOUS
 10
1919.724
 20
2641.395
 30
4000.000
 11
2706.264
 21
1879.181
 31
4500.000
 12
2438.678
 22
1433.205
 32
4000.000
 13
1919.724
 23
2641.395
 33
4000.000
  0
3DFACE
  8
UNCON
  6
CONTINUOUS
 10
1919.724
 20
2641.395
 30
4000.000
 11
2998.176
 21
2422.461
 31
4500.000
 12
2706.264
 22
1879.181
 32
4500.000
 13
1919.724
 23
2641.395
 33
4000.000
  0
3DFACE
  8
UNCON
  6
CONTINUOUS
 10
1919.724
 20
2641.395
 30
4000.000
 11
2771.133
 21
2933.306
 31
4000.000
 12
2998.176
 22
2422.461
 32
4500.000
 13
1919.724
 23
2641.395
 33
4000.000
  0
3DFACE
  8
UNCON
  6
CONTINUOUS
 10
1919.724
 20
2641.395
 30
4000.000
 11
2519.765
 21
3363.065
 31
4000.000
 12
2771.133
 22
2933.306
 32
4000.000
 13
1919.724
 23
2641.395
 33
4000.000
  0
3DFACE
  8
UNCON
  6
CONTINUOUS
 10
1960.268
 20
1068.315
 30
3500.000
 11
2690.047
 21
825.056
 31
3500.000
 12
2098.115
 22
249.341
 32
3000.000
 13
1960.268
 23
1068.315
 33
3500.000
  0
3DFACE
  8
UNCON
  6
CONTINUOUS
 10
1960.268
 20
1068.315
 30
3500.000
 11
2438.678
 21
1433.205
 31
4000.000
 12
2690.047
 22
825.056
 32
3500.000
 13
1960.268
 23
1068.315
 33
3500.000
  0
3DFACE
  8
UNCON
  6
CONTINUOUS
 10
2025.137
 20
4798.297
 30
4000.000
 11
3063.045
 21
5025.339
 31
4500.000
 12
2438.678
 22
3995.540
 32
4500.000
 13
2025.137
 23
4798.297
 33
4000.000
  0
3DFACE
  8
UNCON
  6
CONTINUOUS
 10
2025.137
 20
4798.297
 30
4000.000
 11
2933.306
 21
5649.706
 31
4000.000
 12
3063.045
 22
5025.339
 32
4500.000
 13
2025.137
 23
4798.297
 33
4000.000
  0
3DFACE
  8
UNCON
  6
CONTINUOUS
 10
2098.115
 20
249.341
 30
3000.000
 11
2690.047
 21
825.056
 31
3500.000
 12
4117.170
 22
289.884
 32
3000.000
 13
2098.115
 23
249.341
 33
3000.000
  0
3DFACE
  8
UNCON
  6
CONTINUOUS
 10
2438.678
 20
1433.205
 30
4000.000
 11
3760.389
 21
784.512
 31
3500.000
 12
2690.047
 22
825.056
 32
3500.000
 13
2438.678
 23
1433.205
 33
4000.000
  0
3DFACE
  8
UNCON
  6
CONTINUOUS
 10
2438.678
 20
1433.205
 30
4000.000
 11
4198.257
 21
1222.380
 31
4000.000
 12
3760.389
 22
784.512
 32
3500.000
 13
2438.678
 23
1433.205
 33
4000.000
  0
3DFACE
  8
UNCON
  6
CONTINUOUS
 10
2438.678
 20
1433.205
 30
4000.000
 11
3152.240
 21
1660.247
 31
4500.000
 12
4198.257
 22
1222.380
 32
4000.000
 13
2438.678
 23
1433.205
 33
4000.000
  0
3DFACE
  8
UNCON
  6
CONTINUOUS
 10
2438.678
 20
1433.205
 30
4000.000
 11
2706.264
 21
1879.181
 31
4500.000
 12
3152.240
 22
1660.247
 32
4500.000
 13
2438.678
 23
1433.205
 33
4000.000
  0
3DFACE
  8
UNCON
  6
CONTINUOUS
 10
2438.678
 20
3995.540
 30
4500.000
 11
2941.415
 21
3509.021
 31
4000.000
 12
2519.765
 22
3363.065
 32
4000.000
 13
2438.678
 23
3995.540
 33
4500.000
  0
3DFACE
  8
UNCON
  6
CONTINUOUS
 10
2438.678
 20
3995.540
 30
4500.000
 11
3225.218
 21
4352.321
 31
4500.000
 12
2941.415
 22
3509.021
 32
4000.000
 13
2438.678
 23
3995.540
 33
4500.000
  0
3DFACE
  8
UNCON
  6
CONTINUOUS
 10
2438.678
 20
3995.540
 30
4500.000
 11
3063.045
 21
5025.339
 31
4500.000
 12
3225.218
 22
4352.321
 32
4500.000
 13
2438.678
 23
3995.540
 33
4500.000
  0
3DFACE
  8
UNCON
  6
CONTINUOUS
 10
2511.656
 20
6225.421
 30
3500.000
 11
3492.804
 21
6452.463
 31
3500.000
 12
2933.306
 22
5649.706
 32
4000.000
 13
2511.656
 23
6225.421
 33
3500.000
  0
3DFACE
  8
UNCON
  6
CONTINUOUS
 10
2511.656
 20
6225.421
 30
3500.000
 11
2836.003
 21
7020.069
 31
3000.000
 12
3492.804
 22
6452.463
 32
3500.000
 13
2511.656
 23
6225.421
 33
3500.000
  0
3DFACE
  8
UNCON
  6
CONTINUOUS
 10
2519.765
 20
3363.065
 30
4000.000
 11
2941.415
 21
3509.021
 31
4000.000
 12
2771.133
 22
2933.306
 32
4000.000
 13
2519.765
 23
3363.065
 33
4000.000
  0
3DFACE
  8
UNCON
  6
CONTINUOUS
 10
2690.047
 20
825.056
 30
3500.000
 11
3760.389
 21
784.512
 31
3500.000
 12
4117.170
 22
289.884
 32
3000.000
 13
2690.047
 23
825.056
 33
3500.000
  0
3DFACE
  8
UNCON
  6
CONTINUOUS
 10
2706.264
 20
1879.181
 30
4500.000
 11
2998.176
 21
2422.461
 31
4500.000
 12
3152.240
 22
1660.247
 32
4500.000
 13
2706.264
 23
1879.181
 33
4500.000
  0
3DFACE
  8
UNCON
  6
CONTINUOUS
 10
2771.133
 20
2933.306
 30
4000.000
 11
4182.039
 21
2584.634
 31
4000.000
 12
2998.176
 22
2422.461
 32
4500.000
 13
2771.133
 23
2933.306
 33
4000.000
  0
3DFACE
  8
UNCON
  6
CONTINUOUS
 10
2771.133
 20
2933.306
 30
4000.000
 11
4190.148
 21
3095.479
 31
3500.000
 12
4182.039
 22
2584.634
 32
4000.000
 13
2771.133
 23
2933.306
 33
4000.000
  0
3DFACE
  8
UNCON
  6
CONTINUOUS
 10
2771.133
 20
2933.306
 30
4000.000
 11
2941.415
 21
3509.021
 31
4000.000
 12
4190.148
 22
3095.479
 32
3500.000
 13
2771.133
 23
2933.306
 33
4000.000
  0
3DFACE
  8
UNCON
  6
CONTINUOUS
 10
2836.003
 20
7020.069
 30
3000.000
 11
4222.583
 21
7125.481
 31
3000.000
 12
3492.804
 22
6452.463
 32
3500.000
 13
2836.003
 23
7020.069
 33
3000.000
  0
3DFACE
  8
UNCON
  6
CONTINUOUS
 10
2933.306
 20
5649.706
 30
4000.000
 11
3565.782
 21
5309.142
 31
4500.000
 12
3063.045
 22
5025.339
 32
4500.000
 13
2933.306
 23
5649.706
 33
4000.000
  0
3DFACE
  8
UNCON
  6
CONTINUOUS
 10
2933.306
 20
5649.706
 30
4000.000
 11
3882.019
 21
5892.966
 31
4000.000
 12
3565.782
 22
5309.142
 32
4500.000
 13
2933.306
 23
5649.706
 33
4000.000
  0
3DFACE
  8
UNCON
  6
CONTINUOUS
 10
2933.306
 20
5649.706
 30
4000.000
 11
3492.804
 21
6452.463
 31
3500.000
 12
3882.019
 22
5892.966
 32
4000.000
 13
2933.306
 23
5649.706
 33
4000.000
  0
3DFACE
  8
UNCON
  6
CONTINUOUS
 10
2941.415
 20
3509.021
 30
4000.000
 11
3622.542
 21
3809.041
 31
4000.000
 12
4190.148
 22
3095.479
 32
3500.000
 13
2941.415
 23
3509.021
 33
4000.000
  0
3DFACE
  8
UNCON
  6
CONTINUOUS
 10
2941.415
 20
3509.021
 30
4000.000
 11
3225.218
 21
4352.321
 31
4500.000
 12
3622.542
 22
3809.041
 32
4000.000
 13
2941.415
 23
3509.021
 33
4000.000
  0
3DFACE
  8
UNCON
  6
CONTINUOUS
 10
2998.176
 20
2422.461
 30
4500.000
 11
3898.236
 21
2130.549
 31
4500.000
 12
3152.240
 22
1660.247
 32
4500.000
 13
2998.176
 23
2422.461
 33
4500.000
  0
3DFACE
  8
UNCON
  6
CONTINUOUS
 10
2998.176
 20
2422.461
 30
4500.000
 11
4182.039
 21
2584.634
 31
4000.000
 12
3898.236
 22
2130.549
 32
4500.000
 13
2998.176
 23
2422.461
 33
4500.000
  0
3DFACE
  8
UNCON
  6
CONTINUOUS
 10
3063.045
 20
5025.339
 30
4500.000
 11
3565.782
 21
5309.142
 31
4500.000
 12
3225.218
 22
4352.321
 32
4500.000
 13
3063.045
 23
5025.339
 33
4500.000
  0
3DFACE
  8
UNCON
  6
CONTINUOUS
 10
3152.240
 20
1660.247
 30
4500.000
 11
4295.561
 21
1692.682
 31
4500.000
 12
4198.257
 22
1222.380
 32
4000.000
 13
3152.240
 23
1660.247
 33
4500.000
  0
3DFACE
  8
UNCON
  6
CONTINUOUS
 10
3152.240
 20
1660.247
 30
4500.000
 11
3898.236
 21
2130.549
 31
4500.000
 12
4295.561
 22
1692.682
 32
4500.000
 13
3152.240
 23
1660.247
 33
4500.000
  0
3DFACE
  8
UNCON
  6
CONTINUOUS
 10
3225.218
 20
4352.321
 30
4500.000
 11
4076.627
 21
4757.754
 31
4500.000
 12
3622.542
 22
3809.041
 32
4000.000
 13
3225.218
 23
4352.321
 33
4500.000
  0
3DFACE
  8
UNCON
  6
CONTINUOUS
 10
3225.218
 20
4352.321
 30
4500.000
 11
3565.782
 21
5309.142
 31
4500.000
 12
4076.627
 22
4757.754
 32
4500.000
 13
3225.218
 23
4352.321
 33
4500.000
  0
3DFACE
  8
UNCON
  6
CONTINUOUS
 10
3492.804
 20
6452.463
 30
3500.000
 11
4619.907
 21
6565.984
 31
3500.000
 12
3882.019
 22
5892.966
 32
4000.000
 13
3492.804
 23
6452.463
 33
3500.000
  0
3DFACE
  8
UNCON
  6
CONTINUOUS
 10
3492.804
 20
6452.463
 30
3500.000
 11
4222.583
 21
7125.481
 31
3000.000
 12
4619.907
 22
6565.984
 32
3500.000
 13
3492.804
 23
6452.463
 33
3500.000
  0
3DFACE
  8
UNCON
  6
CONTINUOUS
 10
3565.782
 20
5309.142
 30
4500.000
 11
4595.581
 21
5414.555
 31
4500.000
 12
4076.627
 22
4757.754
 32
4500.000
 13
3565.782
 23
5309.142
 33
4500.000
  0
3DFACE
  8
UNCON
  6
CONTINUOUS
 10
3565.782
 20
5309.142
 30
4500.000
 11
3882.019
 21
5892.966
 31
4000.000
 12
4595.581
 22
5414.555
 32
4500.000
 13
3565.782
 23
5309.142
 33
4500.000
  0
3DFACE
  8
UNCON
  6
CONTINUOUS
 10
3622.542
 20
3809.041
 30
4000.000
 11
4392.864
 21
3233.327
 31
3500.000
 12
4190.148
 22
3095.479
 32
3500.000
 13
3622.542
 23
3809.041
 33
4000.000
  0
3DFACE
  8
UNCON
  6
CONTINUOUS
 10
3622.542
 20
3809.041
 30
4000.000
 11
4409.082
 21
4133.387
 31
4000.000
 12
4392.864
 22
3233.327
 32
3500.000
 13
3622.542
 23
3809.041
 33
4000.000
  0
3DFACE
  8
UNCON
  6
CONTINUOUS
 10
3622.542
 20
3809.041
 30
4000.000
 11
4076.627
 21
4757.754
 31
4500.000
 12
4409.082
 22
4133.387
 32
4000.000
 13
3622.542
 23
3809.041
 33
4000.000
  0
3DFACE
  8
UNCON
  6
CONTINUOUS
 10
3760.389
 20
784.512
 30
3500.000
 11
5495.641
 21
792.621
 31
3500.000
 12
4117.170
 22
289.884
 32
3000.000
 13
3760.389
 23
784.512
 33
3500.000
  0
3DFACE
  8
UNCON
  6
CONTINUOUS
 10
3760.389
 20
784.512
 30
3500.000
 11
4198.257
 21
1222.380
 31
4000.000
 12
5495.641
 22
792.621
 32
3500.000
 13
3760.389
 23
784.512
 33
3500.000
  0
3DFACE
  8
UNCON
  6
CONTINUOUS
 10
3882.019
 20
5892.966
 30
4000.000
 11
4676.667
 21
5974.052
 31
4000.000
 12
4595.581
 22
5414.555
 32
4500.000
 13
3882.019
 23
5892.966
 33
4000.000
  0
3DFACE
  8
UNCON
  6
CONTINUOUS
 10
3882.019
 20
5892.966
 30
4000.000
 11
4619.907
 21
6565.984
 31
3500.000
 12
4676.667
 22
5974.052
 32
4000.000
 13
3882.019
 23
5892.966
 33
4000.000
  0
3DFACE
  8
UNCON
  6
CONTINUOUS
 10
3898.236
 20
2130.549
 30
4500.000
 11
4603.690
 21
1871.072
 31
4500.000
 12
4295.561
 22
1692.682
 32
4500.000
 13
3898.236
 23
2130.549
 33
4500.000
  0
3DFACE
  8
UNCON
  6
CONTINUOUS
 10
3898.236
 20
2130.549
 30
4500.000
 11
4182.039
 21
2584.634
 31
4000.000
 12
4603.690
 22
1871.072
 32
4500.000
 13
3898.236
 23
2130.549
 33
4500.000
  0
3DFACE
  8
UNCON
  6
CONTINUOUS
 10
4076.627
 20
4757.754
 30
4500.000
 11
4733.428
 21
4587.472
 31
4000.000
 12
4409.082
 22
4133.387
 32
4000.000
 13
4076.627
 23
4757.754
 33
4500.000
  0
3DFACE
  8
UNCON
  6
CONTINUOUS
 10
4076.627
 20
4757.754
 30
4500.000
 11
4741.537
 21
5163.187
 31
4500.000
 12
4733.428
 22
4587.472
 32
4000.000
 13
4076.627
 23
4757.754
 33
4500.000
  0
3DFACE
  8
UNCON
  6
CONTINUOUS
 10
4076.627
 20
4757.754
 30
4500.000
 11
4595.581
 21
5414.555
 31
4500.000
 12
4741.537
 22
5163.187
 32
4500.000
 13
4076.627
 23
4757.754
 33
4500.000
  0
3DFACE
  8
UNCON
  6
CONTINUOUS
 10
4117.170
 20
289.884
 30
3000.000
 11
5495.641
 21
792.621
 31
3500.000
 12
5422.664
 22
265.558
 32
3000.000
 13
4117.170
 23
289.884
 33
3000.000
  0
3DFACE
  8
UNCON
  6
CONTINUOUS
 10
4182.039
 20
2584.634
 30
4000.000
 11
4814.515
 21
2300.831
 31
4000.000
 12
4603.690
 22
1871.072
 32
4500.000
 13
4182.039
 23
2584.634
 33
4000.000
  0
3DFACE
  8
UNCON
  6
CONTINUOUS
 10
4182.039
 20
2584.634
 30
4000.000
 11
4506.386
 21
2998.176
 31
3500.000
 12
4814.515
 22
2300.831
 32
4000.000
 13
4182.039
 23
2584.634
 33
4000.000
  0
3DFACE
  8
UNCON
  6
CONTINUOUS
 10
4182.039
 20
2584.634
 30
4000.000
 11
4190.148
 21
3095.479
 31
3500.000
 12
4506.386
 22
2998.176
 32
3500.000
 13
4182.039
 23
2584.634
 33
4000.000
  0
3DFACE
  8
UNCON
  6
CONTINUOUS
 10
4190.148
 20
3095.479
 30
3500.000
 11
4392.864
 21
3233.327
 31
3500.000
 12
4506.386
 22
2998.176
 32
3500.000
 13
4190.148
 23
3095.479
 33
3500.000
  0
3DFACE
  8
UNCON
  6
CONTINUOUS
 10
4198.257
 20
1222.380
 30
4000.000
 11
5276.708
 21
1198.054
 31
4000.000
 12
5495.641
 22
792.621
 32
3500.000
 13
4198.257
 23
1222.380
 33
4000.000
  0
3DFACE
  8
UNCON
  6
CONTINUOUS
 10
4198.257
 20
1222.380
 30
4000.000
 11
4295.561
 21
1692.682
 31
4500.000
 12
5276.708
 22
1198.054
 32
4000.000
 13
4198.257
 23
1222.380
 33
4000.000
  0
3DFACE
  8
UNCON
  6
CONTINUOUS
 10
4222.583
 20
7125.481
 30
3000.000
 11
5041.557
 21
7141.699
 31
3000.000
 12
4619.907
 22
6565.984
 32
3500.000
 13
4222.583
 23
7125.481
 33
3000.000
  0
3DFACE
  8
UNCON
  6
CONTINUOUS
 10
4295.561
 20
1692.682
 30
4500.000
 11
5576.728
 21
1806.203
 31
4500.000
 12
5276.708
 22
1198.054
 32
4000.000
 13
4295.561
 23
1692.682
 33
4500.000
  0
3DFACE
  8
UNCON
  6
CONTINUOUS
 10
4295.561
 20
1692.682
 30
4500.000
 11
4603.690
 21
1871.072
 31
4500.000
 12
5576.728
 22
1806.203
 32
4500.000
 13
4295.561
 23
1692.682
 33
4500.000
  0
3DFACE
  8
UNCON
  6
CONTINUOUS
 10
4392.864
 20
3233.327
 30
3500.000
 11
4855.058
 21
3517.130
 31
3500.000
 12
4506.386
 22
2998.176
 32
3500.000
 13
4392.864
 23
3233.327
 33
3500.000
  0
3DFACE
  8
UNCON
  6
CONTINUOUS
 10
4392.864
 20
3233.327
 30
3500.000
 11
4409.082
 21
4133.387
 31
4000.000
 12
4855.058
 22
3517.130
 32
3500.000
 13
4392.864
 23
3233.327
 33
3500.000
  0
3DFACE
  8
UNCON
  6
CONTINUOUS
 10
4409.082
 20
4133.387
 30
4000.000
 11
5203.730
 21
3882.019
 31
3500.000
 12
4855.058
 22
3517.130
 32
3500.000
 13
4409.082
 23
4133.387
 33
4000.000
  0
3DFACE
  8
UNCON
  6
CONTINUOUS
 10
4409.082
 20
4133.387
 30
4000.000
 11
4733.428
 21
4587.472
 31
4000.000
 12
5203.730
 22
3882.019
 32
3500.000
 13
4409.082
 23
4133.387
 33
4000.000
  0
3DFACE
  8
UNCON
  6
CONTINUOUS
 10
4506.386
 20
2998.176
 30
3500.000
 11
4944.253
 21
2884.654
 31
3500.000
 12
4814.515
 22
2300.831
 32
4000.000
 13
4506.386
 23
2998.176
 33
3500.000
  0
3DFACE
  8
UNCON
  6
CONTINUOUS
 10
4506.386
 20
2998.176
 30
3500.000
 11
4855.058
 21
3517.130
 31
3500.000
 12
4944.253
 22
2884.654
 32
3500.000
 13
4506.386
 23
2998.176
 33
3500.000
  0
3DFACE
  8
UNCON
  6
CONTINUOUS
 10
4595.581
 20
5414.555
 30
4500.000
 11
5130.752
 21
5446.990
 31
4500.000
 12
4741.537
 22
5163.187
 32
4500.000
 13
4595.581
 23
5414.555
 33
4500.000
  0
3DFACE
  8
UNCON
  6
CONTINUOUS
 10
4595.581
 20
5414.555
 30
4500.000
 11
4676.667
 21
5974.052
 31
4000.000
 12
5130.752
 22
5446.990
 32
4500.000
 13
4595.581
 23
5414.555
 33
4500.000
  0
3DFACE
  8
UNCON
  6
CONTINUOUS
 10
4603.690
 20
1871.072
 30
4500.000
 11
4814.515
 21
2300.831
 31
4000.000
 12
5576.728
 22
1806.203
 32
4500.000
 13
4603.690
 23
1871.072
 33
4500.000
  0
3DFACE
  8
UNCON
  6
CONTINUOUS
 10
4619.907
 20
6565.984
 30
3500.000
 11
5625.380
 21
5998.378
 31
4000.000
 12
4676.667
 22
5974.052
 32
4000.000
 13
4619.907
 23
6565.984
 33
3500.000
  0
3DFACE
  8
UNCON
  6
CONTINUOUS
 10
4619.907
 20
6565.984
 30
3500.000
 11
6030.813
 21
6630.853
 31
3500.000
 12
5625.380
 22
5998.378
 32
4000.000
 13
4619.907
 23
6565.984
 33
3500.000
  0
3DFACE
  8
UNCON
  6
CONTINUOUS
 10
4619.907
 20
6565.984
 30
3500.000
 11
5041.557
 21
7141.699
 31
3000.000
 12
6030.813
 22
6630.853
 32
3500.000
 13
4619.907
 23
6565.984
 33
3500.000
  0
3DFACE
  8
UNCON
  6
CONTINUOUS
 10
4676.667
 20
5974.052
 30
4000.000
 11
5625.380
 21
5998.378
 31
4000.000
 12
5130.752
 22
5446.990
 32
4500.000
 13
4676.667
 23
5974.052
 33
4000.000
  0
3DFACE
  8
UNCON
  6
CONTINUOUS
 10
4733.428
 20
4587.472
 30
4000.000
 11
5503.750
 21
4263.126
 31
3500.000
 12
5203.730
 22
3882.019
 32
3500.000
 13
4733.428
 23
4587.472
 33
4000.000
  0
3DFACE
  8
UNCON
  6
CONTINUOUS
 10
4733.428
 20
4587.472
 30
4000.000
 11
5309.142
 21
4976.687
 31
4000.000
 12
5503.750
 22
4263.126
 32
3500.000
 13
4733.428
 23
4587.472
 33
4000.000
  0
3DFACE
  8
UNCON
  6
CONTINUOUS
 10
4733.428
 20
4587.472
 30
4000.000
 11
4741.537
 21
5163.187
 31
4500.000
 12
5309.142
 22
4976.687
 32
4000.000
 13
4733.428
 23
4587.472
 33
4000.000
  0
3DFACE
  8
UNCON
  6
CONTINUOUS
 10
4741.537
 20
5163.187
 30
4500.000
 11
5130.752
 21
5446.990
 31
4500.000
 12
5309.142
 22
4976.687
 32
4000.000
 13
4741.537
 23
5163.187
 33
4500.000
  0
3DFACE
  8
UNCON
  6
CONTINUOUS
 10
4814.515
 20
2300.831
 30
4000.000
 11
6249.747
 21
2162.984
 31
4000.000
 12
5576.728
 22
1806.203
 32
4500.000
 13
4814.515
 23
2300.831
 33
4000.000
  0
3DFACE
  8
UNCON
  6
CONTINUOUS
 10
4814.515
 20
2300.831
 30
4000.000
 11
5747.010
 21
2819.785
 31
3500.000
 12
6249.747
 22
2162.984
 32
4000.000
 13
4814.515
 23
2300.831
 33
4000.000
  0
3DFACE
  8
UNCON
  6
CONTINUOUS
 10
4814.515
 20
2300.831
 30
4000.000
 11
4944.253
 21
2884.654
 31
3500.000
 12
5747.010
 22
2819.785
 32
3500.000
 13
4814.515
 23
2300.831
 33
4000.000
  0
3DFACE
  8
UNCON
  6
CONTINUOUS
 10
4855.058
 20
3517.130
 30
3500.000
 11
5747.010
 21
2819.785
 31
3500.000
 12
4944.253
 22
2884.654
 32
3500.000
 13
4855.058
 23
3517.130
 33
3500.000
  0
3DFACE
  8
UNCON
  6
CONTINUOUS
 10
4855.058
 20
3517.130
 30
3500.000
 11
5203.730
 21
3882.019
 31
3500.000
 12
5747.010
 22
2819.785
 32
3500.000
 13
4855.058
 23
3517.130
 33
3500.000
  0
3DFACE
  8
UNCON
  6
CONTINUOUS
 10
5041.557
 20
7141.699
 30
3000.000
 11
6476.789
 21
7198.459
 31
3000.000
 12
6030.813
 22
6630.853
 32
3500.000
 13
5041.557
 23
7141.699
 33
3000.000
  0
3DFACE
  8
UNCON
  6
CONTINUOUS
 10
5130.752
 20
5446.990
 30
4500.000
 11
6063.248
 21
5041.557
 31
4000.000
 12
5309.142
 22
4976.687
 32
4000.000
 13
5130.752
 23
5446.990
 33
4500.000
  0
3DFACE
  8
UNCON
  6
CONTINUOUS
 10
5130.752
 20
5446.990
 30
4500.000
 11
5625.380
 21
5998.378
 31
4000.000
 12
6063.248
 22
5041.557
 32
4000.000
 13
5130.752
 23
5446.990
 33
4500.000
  0
3DFACE
  8
UNCON
  6
CONTINUOUS
 10
5203.730
 20
3882.019
 30
3500.000
 11
5876.748
 21
3727.955
 31
3000.000
 12
5747.010
 22
2819.785
 32
3500.000
 13
5203.730
 23
3882.019
 33
3500.000
  0
3DFACE
  8
UNCON
  6
CONTINUOUS
 10
5203.730
 20
3882.019
 30
3500.000
 11
5503.750
 21
4263.126
 31
3500.000
 12
5876.748
 22
3727.955
 32
3000.000
 13
5203.730
 23
3882.019
 33
3500.000
  0
3DFACE
  8
UNCON
  6
CONTINUOUS
 10
5276.708
 20
1198.054
 30
4000.000
 11
6403.811
 21
784.512
 31
3500.000
 12
5495.641
 22
792.621
 32
3500.000
 13
5276.708
 23
1198.054
 33
4000.000
  0
3DFACE
  8
UNCON
  6
CONTINUOUS
 10
5276.708
 20
1198.054
 30
4000.000
 11
6938.982
 21
1441.314
 31
4000.000
 12
6403.811
 22
784.512
 32
3500.000
 13
5276.708
 23
1198.054
 33
4000.000
  0
3DFACE
  8
UNCON
  6
CONTINUOUS
 10
5276.708
 20
1198.054
 30
4000.000
 11
5576.728
 21
1806.203
 31
4500.000
 12
6938.982
 22
1441.314
 32
4000.000
 13
5276.708
 23
1198.054
 33
4000.000
  0
3DFACE
  8
UNCON
  6
CONTINUOUS
 10
5309.142
 20
4976.687
 30
4000.000
 11
5836.205
 21
4538.820
 31
3500.000
 12
5503.750
 22
4263.126
 32
3500.000
 13
5309.142
 23
4976.687
 33
4000.000
  0
3DFACE
  8
UNCON
  6
CONTINUOUS
 10
5309.142
 20
4976.687
 30
4000.000
 11
6063.248
 21
5041.557
 31
4000.000
 12
5836.205
 22
4538.820
 32
3500.000
 13
5309.142
 23
4976.687
 33
4000.000
  0
3DFACE
  8
UNCON
  6
CONTINUOUS
 10
5422.664
 20
265.558
 30
3000.000
 11
7563.349
 21
233.124
 31
3000.000
 12
9939.185
 22
14.190
 32
2500.000
 13
5422.664
 23
265.558
 33
3000.000
  0
3DFACE
  8
UNCON
  6
CONTINUOUS
 10
5422.664
 20
265.558
 30
3000.000
 11
6930.874
 21
289.884
 31
3000.000
 12
7563.349
 22
233.124
 32
3000.000
 13
5422.664
 23
265.558
 33
3000.000
  0
3DFACE
  8
UNCON
  6
CONTINUOUS
 10
5422.664
 20
265.558
 30
3000.000
 11
6403.811
 21
784.512
 31
3500.000
 12
6930.874
 22
289.884
 32
3000.000
 13
5422.664
 23
265.558
 33
3000.000
  0
3DFACE
  8
UNCON
  6
CONTINUOUS
 10
5422.664
 20
265.558
 30
3000.000
 11
5495.641
 21
792.621
 31
3500.000
 12
6403.811
 22
784.512
 32
3500.000
 13
5422.664
 23
265.558
 33
3000.000
  0
3DFACE
  8
UNCON
  6
CONTINUOUS
 10
5503.750
 20
4263.126
 30
3500.000
 11
5836.205
 21
4538.820
 31
3500.000
 12
5876.748
 22
3727.955
 32
3000.000
 13
5503.750
 23
4263.126
 33
3500.000
  0
3DFACE
  8
UNCON
  6
CONTINUOUS
 10
5576.728
 20
1806.203
 30
4500.000
 11
6249.747
 21
2162.984
 31
4000.000
 12
6938.982
 22
1441.314
 32
4000.000
 13
5576.728
 23
1806.203
 33
4500.000
  0
3DFACE
  8
UNCON
  6
CONTINUOUS
 10
5625.380
 20
5998.378
 30
4000.000
 11
6428.137
 21
5990.269
 31
4000.000
 12
6063.248
 22
5041.557
 32
4000.000
 13
5625.380
 23
5998.378
 33
4000.000
  0
3DFACE
  8
UNCON
  6
CONTINUOUS
 10
5625.380
 20
5998.378
 30
4000.000
 11
6030.813
 21
6630.853
 31
3500.000
 12
6428.137
 22
5990.269
 32
4000.000
 13
5625.380
 23
5998.378
 33
4000.000
  0
3DFACE
  8
UNCON
  6
CONTINUOUS
 10
5747.010
 20
2819.785
 30
3500.000
 11
6282.181
 21
2844.111
 31
3500.000
 12
6249.747
 22
2162.984
 32
4000.000
 13
5747.010
 23
2819.785
 33
3500.000
  0
3DFACE
  8
UNCON
  6
CONTINUOUS
 10
5747.010
 20
2819.785
 30
3500.000
 11
6144.334
 21
3581.999
 31
3000.000
 12
6282.181
 22
2844.111
 32
3500.000
 13
5747.010
 23
2819.785
 33
3500.000
  0
3DFACE
  8
UNCON
  6
CONTINUOUS
 10
5747.010
 20
2819.785
 30
3500.000
 11
5876.748
 21
3727.955
 31
3000.000
 12
6144.334
 22
3581.999
 32
3000.000
 13
5747.010
 23
2819.785
 33
3500.000
  0
3DFACE
  8
UNCON
  6
CONTINUOUS
 10
5836.205
 20
4538.820
 30
3500.000
 11
6338.942
 21
4173.931
 31
3000.000
 12
5876.748
 22
3727.955
 32
3000.000
 13
5836.205
 23
4538.820
 33
3500.000
  0
3DFACE
  8
UNCON
  6
CONTINUOUS
 10
5836.205
 20
4538.820
 30
3500.000
 11
6209.203
 21
4660.450
 31
3500.000
 12
6338.942
 22
4173.931
 32
3000.000
 13
5836.205
 23
4538.820
 33
3500.000
  0
3DFACE
  8
UNCON
  6
CONTINUOUS
 10
5836.205
 20
4538.820
 30
3500.000
 11
6063.248
 21
5041.557
 31
4000.000
 12
6209.203
 22
4660.450
 32
3500.000
 13
5836.205
 23
4538.820
 33
3500.000
  0
3DFACE
  8
UNCON
  6
CONTINUOUS
 10
5876.748
 20
3727.955
 30
3000.000
 11
6338.942
 21
4173.931
 31
3000.000
 12
6144.334
 22
3581.999
 32
3000.000
 13
5876.748
 23
3727.955
 33
3000.000
  0
3DFACE
  8
UNCON
  6
CONTINUOUS
 10
6030.813
 20
6630.853
 30
3500.000
 11
7214.677
 21
6590.310
 31
3500.000
 12
6428.137
 22
5990.269
 32
4000.000
 13
6030.813
 23
6630.853
 33
3500.000
  0
3DFACE
  8
UNCON
  6
CONTINUOUS
 10
6030.813
 20
6630.853
 30
3500.000
 11
6476.789
 21
7198.459
 31
3000.000
 12
7214.677
 22
6590.310
 32
3500.000
 13
6030.813
 23
6630.853
 33
3500.000
  0
3DFACE
  8
UNCON
  6
CONTINUOUS
 10
6063.248
 20
5041.557
 30
4000.000
 11
6890.330
 21
5090.209
 31
4000.000
 12
6209.203
 22
4660.450
 32
3500.000
 13
6063.248
 23
5041.557
 33
4000.000
  0
3DFACE
  8
UNCON
  6
CONTINUOUS
 10
6063.248
 20
5041.557
 30
4000.000
 11
6428.137
 21
5990.269
 31
4000.000
 12
6890.330
 22
5090.209
 32
4000.000
 13
6063.248
 23
5041.557
 33
4000.000
  0
3DFACE
  8
UNCON
  6
CONTINUOUS
 10
6144.334
 20
3581.999
 30
3000.000
 11
6793.026
 21
3752.281
 31
3000.000
 12
6282.181
 22
2844.111
 32
3500.000
 13
6144.334
 23
3581.999
 33
3000.000
  0
3DFACE
  8
UNCON
  6
CONTINUOUS
 10
6144.334
 20
3581.999
 30
3000.000
 11
6338.942
 21
4173.931
 31
3000.000
 12
6793.026
 22
3752.281
 32
3000.000
 13
6144.334
 23
3581.999
 33
3000.000
  0
3DFACE
  8
UNCON
  6
CONTINUOUS
 10
6209.203
 20
4660.450
 30
3500.000
 11
6736.266
 21
4352.321
 31
3000.000
 12
6338.942
 22
4173.931
 32
3000.000
 13
6209.203
 23
4660.450
 33
3500.000
  0
3DFACE
  8
UNCON
  6
CONTINUOUS
 10
6209.203
 20
4660.450
 30
3500.000
 11
6866.004
 21
4684.776
 31
3500.000
 12
6736.266
 22
4352.321
 32
3000.000
 13
6209.203
 23
4660.450
 33
3500.000
  0
3DFACE
  8
UNCON
  6
CONTINUOUS
 10
6209.203
 20
4660.450
 30
3500.000
 11
6890.330
 21
5090.209
 31
4000.000
 12
6866.004
 22
4684.776
 32
3500.000
 13
6209.203
 23
4660.450
 33
3500.000
  0
3DFACE
  8
UNCON
  6
CONTINUOUS
 10
6249.747
 20
2162.984
 30
4000.000
 11
6922.765
 21
1927.833
 31
4000.000
 12
6938.982
 22
1441.314
 32
4000.000
 13
6249.747
 23
2162.984
 33
4000.000
  0
3DFACE
  8
UNCON
  6
CONTINUOUS
 10
6249.747
 20
2162.984
 30
4000.000
 11
7028.177
 21
2917.089
 31
3500.000
 12
6922.765
 22
1927.833
 32
4000.000
 13
6249.747
 23
2162.984
 33
4000.000
  0
3DFACE
  8
UNCON
  6
CONTINUOUS
 10
6249.747
 20
2162.984
 30
4000.000
 11
6282.181
 21
2844.111
 31
3500.000
 12
7028.177
 22
2917.089
 32
3500.000
 13
6249.747
 23
2162.984
 33
4000.000
  0
3DFACE
  8
UNCON
  6
CONTINUOUS
 10
6282.181
 20
2844.111
 30
3500.000
 11
6793.026
 21
3752.281
 31
3000.000
 12
7028.177
 22
2917.089
 32
3500.000
 13
6282.181
 23
2844.111
 33
3500.000
  0
3DFACE
  8
UNCON
  6
CONTINUOUS
 10
6338.942
 20
4173.931
 30
3000.000
 11
6736.266
 21
4352.321
 31
3000.000
 12
6793.026
 22
3752.281
 32
3000.000
 13
6338.942
 23
4173.931
 33
3000.000
  0
3DFACE
  8
UNCON
  6
CONTINUOUS
 10
6403.811
 20
784.512
 30
3500.000
 11
7652.544
 21
946.686
 31
3500.000
 12
6930.874
 22
289.884
 32
3000.000
 13
6403.811
 23
784.512
 33
3500.000
  0
3DFACE
  8
UNCON
  6
CONTINUOUS
 10
6403.811
 20
784.512
 30
3500.000
 11
6938.982
 21
1441.314
 31
4000.000
 12
7652.544
 22
946.686
 32
3500.000
 13
6403.811
 23
784.512
 33
3500.000
  0
3DFACE
  8
UNCON
  6
CONTINUOUS
 10
6428.137
 20
5990.269
 30
4000.000
 11
7255.220
 21
5844.314
 31
4000.000
 12
6890.330
 22
5090.209
 32
4000.000
 13
6428.137
 23
5990.269
 33
4000.000
  0
3DFACE
  8
UNCON
  6
CONTINUOUS
 10
6428.137
 20
5990.269
 30
4000.000
 11
7214.677
 21
6590.310
 31
3500.000
 12
7255.220
 22
5844.314
 32
4000.000
 13
6428.137
 23
5990.269
 33
4000.000
  0
3DFACE
  8
UNCON
  6
CONTINUOUS
 10
6476.789
 20
7198.459
 30
3000.000
 11
7563.349
 21
7182.242
 31
3000.000
 12
7214.677
 22
6590.310
 32
3500.000
 13
6476.789
 23
7198.459
 33
3000.000
  0
3DFACE
  8
UNCON
  6
CONTINUOUS
 10
6476.789
 20
7198.459
 30
3000.000
 11
9931.076
 21
7579.566
 31
2500.000
 12
7563.349
 22
7182.242
 32
3000.000
 13
6476.789
 23
7198.459
 33
3000.000
  0
3DFACE
  8
UNCON
  6
CONTINUOUS
 10
6736.266
 20
4352.321
 30
3000.000
 11
7482.262
 21
3825.258
 31
3000.000
 12
6793.026
 22
3752.281
 32
3000.000
 13
6736.266
 23
4352.321
 33
3000.000
  0
3DFACE
  8
UNCON
  6
CONTINUOUS
 10
6736.266
 20
4352.321
 30
3000.000
 11
7684.979
 21
4441.516
 31
3000.000
 12
7482.262
 22
3825.258
 32
3000.000
 13
6736.266
 23
4352.321
 33
3000.000
  0
3DFACE
  8
UNCON
  6
CONTINUOUS
 10
6736.266
 20
4352.321
 30
3000.000
 11
6866.004
 21
4684.776
 31
3500.000
 12
7684.979
 22
4441.516
 32
3000.000
 13
6736.266
 23
4352.321
 33
3000.000
  0
3DFACE
  8
UNCON
  6
CONTINUOUS
 10
6793.026
 20
3752.281
 30
3000.000
 11
7482.262
 21
3825.258
 31
3000.000
 12
7028.177
 22
2917.089
 32
3500.000
 13
6793.026
 23
3752.281
 33
3000.000
  0
3DFACE
  8
UNCON
  6
CONTINUOUS
 10
6866.004
 20
4684.776
 30
3500.000
 11
7920.130
 21
4782.080
 31
3500.000
 12
7684.979
 22
4441.516
 32
3000.000
 13
6866.004
 23
4684.776
 33
3500.000
  0
3DFACE
  8
UNCON
  6
CONTINUOUS
 10
6866.004
 20
4684.776
 30
3500.000
 11
6890.330
 21
5090.209
 31
4000.000
 12
7920.130
 22
4782.080
 32
3500.000
 13
6866.004
 23
4684.776
 33
3500.000
  0
3DFACE
  8
UNCON
  6
CONTINUOUS
 10
6890.330
 20
5090.209
 30
4000.000
 11
7595.783
 21
5536.185
 31
4000.000
 12
7920.130
 22
4782.080
 32
3500.000
 13
6890.330
 23
5090.209
 33
4000.000
  0
3DFACE
  8
UNCON
  6
CONTINUOUS
 10
6890.330
 20
5090.209
 30
4000.000
 11
7255.220
 21
5844.314
 31
4000.000
 12
7595.783
 22
5536.185
 32
4000.000
 13
6890.330
 23
5090.209
 33
4000.000
  0
3DFACE
  8
UNCON
  6
CONTINUOUS
 10
6922.765
 20
1927.833
 30
4000.000
 11
7928.238
 21
2090.006
 31
3500.000
 12
6938.982
 22
1441.314
 32
4000.000
 13
6922.765
 23
1927.833
 33
4000.000
  0
3DFACE
  8
UNCON
  6
CONTINUOUS
 10
6922.765
 20
1927.833
 30
4000.000
 11
7522.806
 21
2487.330
 31
3500.000
 12
7928.238
 22
2090.006
 32
3500.000
 13
6922.765
 23
1927.833
 33
4000.000
  0
3DFACE
  8
UNCON
  6
CONTINUOUS
 10
6922.765
 20
1927.833
 30
4000.000
 11
7028.177
 21
2917.089
 31
3500.000
 12
7522.806
 22
2487.330
 32
3500.000
 13
6922.765
 23
1927.833
 33
4000.000
  0
3DFACE
  8
UNCON
  6
CONTINUOUS
 10
6930.874
 20
289.884
 30
3000.000
 11
7652.544
 21
946.686
 31
3500.000
 12
7563.349
 22
233.124
 32
3000.000
 13
6930.874
 23
289.884
 33
3000.000
  0
3DFACE
  8
UNCON
  6
CONTINUOUS
 10
6938.982
 20
1441.314
 30
4000.000
 11
7928.238
 21
2090.006
 31
3500.000
 12
7652.544
 22
946.686
 32
3500.000
 13
6938.982
 23
1441.314
 33
4000.000
  0
3DFACE
  8
UNCON
  6
CONTINUOUS
 10
7028.177
 20
2917.089
 30
3500.000
 11
7912.021
 21
3654.977
 31
3000.000
 12
7522.806
 22
2487.330
 32
3500.000
 13
7028.177
 23
2917.089
 33
3500.000
  0
3DFACE
  8
UNCON
  6
CONTINUOUS
 10
7028.177
 20
2917.089
 30
3500.000
 11
7482.262
 21
3825.258
 31
3000.000
 12
7912.021
 22
3654.977
 32
3000.000
 13
7028.177
 23
2917.089
 33
3500.000
  0
3DFACE
  8
UNCON
  6
CONTINUOUS
 10
7214.677
 20
6590.310
 30
3500.000
 11
8017.434
 21
6330.833
 31
3500.000
 12
7255.220
 22
5844.314
 32
4000.000
 13
7214.677
 23
6590.310
 33
3500.000
  0
3DFACE
  8
UNCON
  6
CONTINUOUS
 10
7214.677
 20
6590.310
 30
3500.000
 11
7563.349
 21
7182.242
 31
3000.000
 12
8017.434
 22
6330.833
 32
3500.000
 13
7214.677
 23
6590.310
 33
3500.000
  0
3DFACE
  8
UNCON
  6
CONTINUOUS
 10
7255.220
 20
5844.314
 30
4000.000
 11
8017.434
 21
6330.833
 31
3500.000
 12
7595.783
 22
5536.185
 32
4000.000
 13
7255.220
 23
5844.314
 33
4000.000
  0
3DFACE
  8
UNCON
  6
CONTINUOUS
 10
7482.262
 20
3825.258
 30
3000.000
 11
7684.979
 21
4441.516
 31
3000.000
 12
7912.021
 22
3654.977
 32
3000.000
 13
7482.262
 23
3825.258
 33
3000.000
  0
3DFACE
  8
UNCON
  6
CONTINUOUS
 10
7522.806
 20
2487.330
 30
3500.000
 11
8690.452
 21
3136.023
 31
3000.000
 12
7928.238
 22
2090.006
 32
3500.000
 13
7522.806
 23
2487.330
 33
3500.000
  0
3DFACE
  8
UNCON
  6
CONTINUOUS
 10
7522.806
 20
2487.330
 30
3500.000
 11
8366.106
 21
3379.282
 31
3000.000
 12
8690.452
 22
3136.023
 32
3000.000
 13
7522.806
 23
2487.330
 33
3500.000
  0
3DFACE
  8
UNCON
  6
CONTINUOUS
 10
7522.806
 20
2487.330
 30
3500.000
 11
7912.021
 21
3654.977
 31
3000.000
 12
8366.106
 22
3379.282
 32
3000.000
 13
7522.806
 23
2487.330
 33
3500.000
  0
3DFACE
  8
UNCON
  6
CONTINUOUS
 10
7563.349
 20
233.124
 30
3000.000
 11
8341.780
 21
216.907
 31
3000.000
 12
9939.185
 22
14.190
 32
2500.000
 13
7563.349
 23
233.124
 33
3000.000
  0
3DFACE
  8
UNCON
  6
CONTINUOUS
 10
7563.349
 20
233.124
 30
3000.000
 11
7652.544
 21
946.686
 31
3500.000
 12
8341.780
 22
216.907
 32
3000.000
 13
7563.349
 23
233.124
 33
3000.000
  0
3DFACE
  8
UNCON
  6
CONTINUOUS
 10
7563.349
 20
7182.242
 30
3000.000
 11
8366.106
 21
7011.960
 31
3000.000
 12
8017.434
 22
6330.833
 32
3500.000
 13
7563.349
 23
7182.242
 33
3000.000
  0
3DFACE
  8
UNCON
  6
CONTINUOUS
 10
7563.349
 20
7182.242
 30
3000.000
 11
9931.076
 21
7579.566
 31
2500.000
 12
8366.106
 22
7011.960
 32
3000.000
 13
7563.349
 23
7182.242
 33
3000.000
  0
3DFACE
  8
UNCON
  6
CONTINUOUS
 10
7595.783
 20
5536.185
 30
4000.000
 11
8422.866
 21
5041.557
 31
3500.000
 12
7920.130
 22
4782.080
 32
3500.000
 13
7595.783
 23
5536.185
 33
4000.000
  0
3DFACE
  8
UNCON
  6
CONTINUOUS
 10
7595.783
 20
5536.185
 30
4000.000
 11
8585.040
 21
5528.076
 31
3500.000
 12
8422.866
 22
5041.557
 32
3500.000
 13
7595.783
 23
5536.185
 33
4000.000
  0
3DFACE
  8
UNCON
  6
CONTINUOUS
 10
7595.783
 20
5536.185
 30
4000.000
 11
8439.084
 21
6006.487
 31
3500.000
 12
8585.040
 22
5528.076
 32
3500.000
 13
7595.783
 23
5536.185
 33
4000.000
  0
3DFACE
  8
UNCON
  6
CONTINUOUS
 10
7595.783
 20
5536.185
 30
4000.000
 11
8017.434
 21
6330.833
 31
3500.000
 12
8439.084
 22
6006.487
 32
3500.000
 13
7595.783
 23
5536.185
 33
4000.000
  0
3DFACE
  8
UNCON
  6
CONTINUOUS
 10
7652.544
 20
946.686
 30
3500.000
 11
8779.647
 21
460.166
 31
3000.000
 12
8341.780
 22
216.907
 32
3000.000
 13
7652.544
 23
946.686
 33
3500.000
  0
3DFACE
  8
UNCON
  6
CONTINUOUS
 10
7652.544
 20
946.686
 30
3500.000
 11
8236.367
 21
1708.899
 31
3500.000
 12
8779.647
 22
460.166
 32
3000.000
 13
7652.544
 23
946.686
 33
3500.000
  0
3DFACE
  8
UNCON
  6
CONTINUOUS
 10
7652.544
 20
946.686
 30
3500.000
 11
7928.238
 21
2090.006
 31
3500.000
 12
8236.367
 22
1708.899
 32
3500.000
 13
7652.544
 23
946.686
 33
3500.000
  0
3DFACE
  8
UNCON
  6
CONTINUOUS
 10
7684.979
 20
4441.516
 30
3000.000
 11
8285.019
 21
4473.951
 31
3000.000
 12
7912.021
 22
3654.977
 32
3000.000
 13
7684.979
 23
4441.516
 33
3000.000
  0
3DFACE
  8
UNCON
  6
CONTINUOUS
 10
7684.979
 20
4441.516
 30
3000.000
 11
7920.130
 21
4782.080
 31
3500.000
 12
8285.019
 22
4473.951
 32
3000.000
 13
7684.979
 23
4441.516
 33
3000.000
  0
3DFACE
  8
UNCON
  6
CONTINUOUS
 10
7912.021
 20
3654.977
 30
3000.000
 11
8285.019
 21
4473.951
 31
3000.000
 12
8366.106
 22
3379.282
 32
3000.000
 13
7912.021
 23
3654.977
 33
3000.000
  0
3DFACE
  8
UNCON
  6
CONTINUOUS
 10
7920.130
 20
4782.080
 30
3500.000
 11
8422.866
 21
5041.557
 31
3500.000
 12
8285.019
 22
4473.951
 32
3000.000
 13
7920.130
 23
4782.080
 33
3500.000
  0
3DFACE
  8
UNCON
  6
CONTINUOUS
 10
7928.238
 20
2090.006
 30
3500.000
 11
9241.841
 21
1944.050
 31
3000.000
 12
8236.367
 22
1708.899
 32
3500.000
 13
7928.238
 23
2090.006
 33
3500.000
  0
3DFACE
  8
UNCON
  6
CONTINUOUS
 10
7928.238
 20
2090.006
 30
3500.000
 11
8690.452
 21
3136.023
 31
3000.000
 12
9241.841
 22
1944.050
 32
3000.000
 13
7928.238
 23
2090.006
 33
3500.000
  0
3DFACE
  8
UNCON
  6
CONTINUOUS
 10
8017.434
 20
6330.833
 30
3500.000
 11
8844.516
 21
6744.374
 31
3000.000
 12
8439.084
 22
6006.487
 32
3500.000
 13
8017.434
 23
6330.833
 33
3500.000
  0
3DFACE
  8
UNCON
  6
CONTINUOUS
 10
8017.434
 20
6330.833
 30
3500.000
 11
8366.106
 21
7011.960
 31
3000.000
 12
8844.516
 22
6744.374
 32
3000.000
 13
8017.434
 23
6330.833
 33
3500.000
  0
3DFACE
  8
UNCON
  6
CONTINUOUS
 10
8236.367
 20
1708.899
 30
3500.000
 11
9249.949
 21
816.947
 31
3000.000
 12
8779.647
 22
460.166
 32
3000.000
 13
8236.367
 23
1708.899
 33
3500.000
  0
3DFACE
  8
UNCON
  6
CONTINUOUS
 10
8236.367
 20
1708.899
 30
3500.000
 11
9241.841
 21
1944.050
 31
3000.000
 12
9249.949
 22
816.947
 32
3000.000
 13
8236.367
 23
1708.899
 33
3500.000
  0
3DFACE
  8
UNCON
  6
CONTINUOUS
 10
8285.019
 20
4473.951
 30
3000.000
 11
9136.428
 21
4530.711
 31
3000.000
 12
8366.106
 22
3379.282
 32
3000.000
 13
8285.019
 23
4473.951
 33
3000.000
  0
3DFACE
  8
UNCON
  6
CONTINUOUS
 10
8285.019
 20
4473.951
 30
3000.000
 11
8422.866
 21
5041.557
 31
3500.000
 12
9136.428
 22
4530.711
 32
3000.000
 13
8285.019
 23
4473.951
 33
3000.000
  0
3DFACE
  8
UNCON
  6
CONTINUOUS
 10
8341.780
 20
216.907
 30
3000.000
 11
8779.647
 21
460.166
 31
3000.000
 12
9939.185
 22
14.190
 32
2500.000
 13
8341.780
 23
216.907
 33
3000.000
  0
3DFACE
  8
UNCON
  6
CONTINUOUS
 10
8366.106
 20
3379.282
 30
3000.000
 11
9136.428
 21
4530.711
 31
3000.000
 12
8690.452
 22
3136.023
 32
3000.000
 13
8366.106
 23
3379.282
 33
3000.000
  0
3DFACE
  8
UNCON
  6
CONTINUOUS
 10
8366.106
 20
7011.960
 30
3000.000
 11
9931.076
 21
7579.566
 31
2500.000
 12
8844.516
 22
6744.374
 32
3000.000
 13
8366.106
 23
7011.960
 33
3000.000
  0
3DFACE
  8
UNCON
  6
CONTINUOUS
 10
8422.866
 20
5041.557
 30
3500.000
 11
9355.362
 21
5073.991
 31
3000.000
 12
9136.428
 22
4530.711
 32
3000.000
 13
8422.866
 23
5041.557
 33
3500.000
  0
3DFACE
  8
UNCON
  6
CONTINUOUS
 10
8422.866
 20
5041.557
 30
3500.000
 11
8585.040
 21
5528.076
 31
3500.000
 12
9355.362
 22
5073.991
 32
3000.000
 13
8422.866
 23
5041.557
 33
3500.000
  0
3DFACE
  8
UNCON
  6
CONTINUOUS
 10
8439.084
 20
6006.487
 30
3500.000
 11
9193.189
 21
5925.400
 31
3000.000
 12
8585.040
 22
5528.076
 32
3500.000
 13
8439.084
 23
6006.487
 33
3500.000
  0
3DFACE
  8
UNCON
  6
CONTINUOUS
 10
8439.084
 20
6006.487
 30
3500.000
 11
8844.516
 21
6744.374
 31
3000.000
 12
9193.189
 22
5925.400
 32
3000.000
 13
8439.084
 23
6006.487
 33
3500.000
  0
3DFACE
  8
UNCON
  6
CONTINUOUS
 10
8585.040
 20
5528.076
 30
3500.000
 11
9193.189
 21
5925.400
 31
3000.000
 12
9355.362
 22
5073.991
 32
3000.000
 13
8585.040
 23
5528.076
 33
3500.000
  0
3DFACE
  8
UNCON
  6
CONTINUOUS
 10
8690.452
 20
3136.023
 30
3000.000
 11
9136.428
 21
4530.711
 31
3000.000
 12
9241.841
 22
1944.050
 32
3000.000
 13
8690.452
 23
3136.023
 33
3000.000
  0
3DFACE
  8
UNCON
  6
CONTINUOUS
 10
8779.647
 20
460.166
 30
3000.000
 11
9249.949
 21
816.947
 31
3000.000
 12
9939.185
 22
14.190
 32
2500.000
 13
8779.647
 23
460.166
 33
3000.000
  0
3DFACE
  8
UNCON
  6
CONTINUOUS
 10
8844.516
 20
6744.374
 30
3000.000
 11
9931.076
 21
7579.566
 31
2500.000
 12
9193.189
 22
5925.400
 32
3000.000
 13
8844.516
 23
6744.374
 33
3000.000
  0
3DFACE
  8
UNCON
  6
CONTINUOUS
 10
9136.428
 20
4530.711
 30
3000.000
 11
9574.296
 21
1376.444
 31
3000.000
 12
9241.841
 22
1944.050
 32
3000.000
 13
9136.428
 23
4530.711
 33
3000.000
  0
3DFACE
  8
UNCON
  6
CONTINUOUS
 10
9136.428
 20
4530.711
 30
3000.000
 11
9355.362
 21
5073.991
 31
3000.000
 12
9574.296
 22
1376.444
 32
3000.000
 13
9136.428
 23
4530.711
 33
3000.000
  0
3DFACE
  8
UNCON
  6
CONTINUOUS
 10
9193.189
 20
5925.400
 30
3000.000
 11
9931.076
 21
7579.566
 31
2500.000
 12
9355.362
 22
5073.991
 32
3000.000
 13
9193.189
 23
5925.400
 33
3000.000
  0
3DFACE
  8
UNCON
  6
CONTINUOUS
 10
9241.841
 20
1944.050
 30
3000.000
 11
9574.296
 21
1376.444
 31
3000.000
 12
9249.949
 22
816.947
 32
3000.000
 13
9241.841
 23
1944.050
 33
3000.000
  0
3DFACE
  8
UNCON
  6
CONTINUOUS
 10
9249.949
 20
816.947
 30
3000.000
 11
9574.296
 21
1376.444
 31
3000.000
 12
9939.185
 22
14.190
 32
2500.000
 13
9249.949
 23
816.947
 33
3000.000
  0
3DFACE
  8
UNCON
  6
CONTINUOUS
 10
9355.362
 20
5073.991
 30
3000.000
 11
9931.076
 21
7579.566
 31
2500.000
 12
9574.296
 22
1376.444
 32
3000.000
 13
9355.362
 23
5073.991
 33
3000.000
  0
3DFACE
  8
UNCON
  6
CONTINUOUS
 10
9574.296
 20
1376.444
 30
3000.000
 11
9931.076
 21
7579.566
 31
2500.000
 12
9939.185
 22
14.190
 32
2500.000
 13
9574.296
 23
1376.444
 33
3000.000
  0
ENDSEC
  0
EOF
